<svg width="125" height="125" viewBox="0 0 125 125" fill="none" xmlns="http://www.w3.org/2000/svg">
<path d="M23.364 75.5501C23.2876 76.5909 22.9812 77.4665 22.4449 78.1768C21.9097 78.8716 21.1644 79.4494 20.2091 79.9103C19.7093 80.1235 18.9925 80.3129 18.0589 80.4787C17.1097 80.6432 16.0445 80.7915 14.8635 80.9234C13.668 81.0387 12.4509 81.129 11.2123 81.1942C9.95925 81.2427 8.77839 81.2654 7.66973 81.2621C6.54552 81.2576 5.58729 81.2263 4.79502 81.1681C3.98721 81.1088 3.28003 80.9554 2.67347 80.7078C2.05251 80.4435 1.57879 80.0886 1.25229 79.6429C0.91025 79.1961 0.763186 78.6465 0.811092 77.994C0.865843 77.2483 1.13936 76.714 1.63163 76.3909C2.12505 76.0523 2.86737 75.8334 3.85861 75.7344C4.42242 75.7134 5.09554 75.6925 5.87798 75.6719C6.66042 75.6512 7.49004 75.6262 8.36682 75.5969C9.24475 75.552 10.1227 75.5072 11.0006 75.4623C11.8641 75.4007 12.6572 75.3418 13.3798 75.2856C14.088 75.2126 14.6719 75.1305 15.1315 75.0393C15.6855 74.9395 16.1341 74.785 16.4775 74.5759C16.8208 74.3668 17.0045 74.0992 17.0284 73.773C17.0512 73.4623 16.892 73.1851 16.5507 72.9413C16.2093 72.6976 15.7492 72.4764 15.1703 72.2777C14.3917 72.0331 13.5049 71.7728 12.51 71.4967C11.4996 71.2195 10.4664 70.9328 9.41044 70.6366C8.34012 70.3237 7.30087 70.0131 6.29269 69.7048C5.28565 69.381 4.38072 69.049 3.57791 68.7089C2.82627 68.3101 2.23191 67.7901 1.79481 67.1489C1.35772 66.5077 1.17853 65.6512 1.25723 64.5793C1.32909 63.6006 1.6019 62.8631 2.07565 62.3669C2.54941 61.8706 3.12221 61.5144 3.79406 61.2982C4.30372 61.1638 4.96266 61.017 5.7709 60.8577C6.57914 60.6984 7.44952 60.5436 8.38204 60.3934C9.29902 60.2421 10.2232 60.0991 11.1546 59.9645C12.0716 59.8131 12.9241 59.6883 13.7123 59.59C14.486 59.475 15.1177 59.3808 15.6072 59.3074C16.3332 59.2046 16.9139 59.0598 17.3493 58.8731C17.7692 58.6853 17.9894 58.4515 18.0099 58.1719C18.0362 57.8146 17.8936 57.523 17.5822 57.2971C17.2719 57.0557 16.8141 56.8034 16.2087 56.5403C15.7241 56.3329 15.0298 56.1101 14.1258 55.8719C13.223 55.6182 12.2263 55.3654 11.1359 55.1136C10.0455 54.8617 8.97004 54.6187 7.90955 54.3847C6.8502 54.1351 5.92119 53.9185 5.12251 53.7349C4.23861 53.4357 3.61616 53.0855 3.25516 52.6841C2.87978 52.2661 2.71718 51.7153 2.76737 51.0318C2.79816 50.6124 2.90492 50.2219 3.08765 49.8605C3.27151 49.4835 3.54516 49.16 3.90859 48.89C4.27317 48.6044 4.74912 48.3972 5.33646 48.2685C5.92379 48.1399 6.62912 48.1058 7.45246 48.1662C8.08939 48.213 8.8394 48.3149 9.7025 48.472C10.5512 48.6124 11.4592 48.7962 12.4265 49.0234C13.3938 49.2506 14.3593 49.5011 15.3232 49.7749C16.2882 50.0332 17.2126 50.3119 18.0965 50.6111C18.9804 50.9103 19.7706 51.2104 20.4669 51.5114C21.1644 51.7969 21.7137 52.0793 22.1149 52.3587C22.9571 53.014 23.5965 53.7716 24.0331 54.6314C24.4709 55.4758 24.6499 56.4416 24.57 57.5291C24.4891 58.632 24.1027 59.5329 23.4111 60.2318C22.7194 60.9307 21.9499 61.4131 21.1026 61.6789C20.2932 61.8537 19.3668 62.0278 18.3232 62.201C17.2808 62.3588 16.214 62.5303 15.1227 62.7157C14.0159 62.9 12.9562 63.0799 11.9438 63.2554C10.9169 63.4143 10.0315 63.5602 9.28773 63.693C8.67161 63.7883 8.15418 63.9221 7.73545 64.0944C7.30119 64.2655 7.06808 64.5686 7.03615 65.0036C7.00421 65.4386 7.19546 65.8118 7.6099 66.1234C8.00881 66.4338 8.50605 66.6812 9.10164 66.8655C9.63509 67.0452 10.3144 67.2591 11.1396 67.5071C11.9492 67.7539 12.821 68.0054 13.755 68.2614C14.6734 68.5162 15.5912 68.7789 16.5084 69.0492C17.4257 69.3196 18.2658 69.5766 19.0289 69.82C19.7764 70.0623 20.3691 70.2854 20.8071 70.4894C21.5731 70.9049 22.2116 71.5687 22.7225 72.4808C23.2346 73.3774 23.4484 74.4005 23.364 75.5501Z" fill="#FF7B36"/>
<path d="M33.8298 44.2671C33.0329 45.2453 32.1788 46.0965 31.2674 46.8207C30.3659 47.5328 29.4283 48.0549 28.4547 48.3869C27.4811 48.7188 26.4987 48.8026 25.5076 48.6381C24.5165 48.4736 23.5319 47.993 22.5537 47.1961C21.4426 46.291 20.7522 45.2765 20.4823 44.1527C20.2125 43.0288 20.2571 41.8396 20.6161 40.585C20.9728 39.3085 21.5499 38.0207 22.3471 36.7213C23.1444 35.422 24.0546 34.1444 25.0777 32.8884C25.3926 32.5019 25.7244 32.1193 26.0732 31.7404C26.422 31.3616 26.7511 31.0069 27.0605 30.6763C27.3798 30.3337 27.6329 30.0477 27.8199 29.8182C28.0756 29.5042 28.1995 29.2535 28.1914 29.0661C28.1713 28.8689 28.0344 28.667 27.7808 28.4604C27.3098 28.0767 26.844 27.7977 26.3833 27.6233C25.9324 27.4369 25.4796 27.3392 25.0248 27.3303C24.5699 27.3214 24.1229 27.3892 23.6837 27.5337C22.9642 27.7512 22.2576 28.15 21.564 28.7301C20.8681 29.2884 20.2005 29.96 19.561 30.745C18.8035 31.6749 18.2262 32.5808 17.8292 33.4628C17.442 34.3328 17.1247 35.1291 16.8775 35.8519C16.6303 36.5746 16.3197 37.1655 15.9459 37.6244C15.4343 38.2524 14.9382 38.6518 14.4574 38.8227C13.9766 38.9936 13.5068 38.8922 13.0479 38.5183C12.5769 38.1346 12.3045 37.5812 12.2306 36.858C12.1567 36.1349 12.2541 35.3001 12.5228 34.3537C12.8013 33.3952 13.2348 32.3822 13.8232 31.3145C14.4215 30.2348 15.1535 29.1636 16.0192 28.1009C17.7605 25.9633 19.4883 24.3973 21.2024 23.4029C22.9143 22.3866 24.6692 22.008 26.4672 22.2672C28.253 22.5165 30.1604 23.4676 32.1893 25.1203C32.7931 25.6122 33.2938 26.0704 33.6915 26.4947C34.0891 26.9191 34.4177 27.3174 34.6771 27.6894C34.9343 28.0396 35.1591 28.3432 35.3514 28.6004C35.5438 28.8575 35.7426 29.0697 35.9479 29.237C36.2378 29.4731 36.5893 29.6088 37.0026 29.644C37.4136 29.6574 37.8492 29.6406 38.3094 29.5936C38.7794 29.5345 39.2381 29.5264 39.6853 29.5693C40.1205 29.6023 40.5132 29.7615 40.8634 30.0468C41.3827 30.4698 41.6193 30.9438 41.5733 31.4689C41.5273 31.994 41.3371 32.4618 41.0026 32.8724C40.6976 33.2468 40.315 33.4575 39.8548 33.5045C39.4166 33.5493 38.993 33.5759 38.5842 33.5845C38.1853 33.5809 37.8678 33.7241 37.6317 34.0139C37.4939 34.183 37.3898 34.4096 37.3191 34.6936C37.2583 34.9655 37.2125 35.33 37.1817 35.7871C37.1523 36.3658 37.0694 37.0718 36.9331 37.905C36.8187 38.736 36.5281 39.6846 36.0613 40.7509C35.6066 41.827 34.8628 42.9991 33.8298 44.2671ZM31.4566 41.5202C32.0666 40.7715 32.5421 39.9534 32.8833 39.0661C33.2123 38.1689 33.3978 37.2753 33.4398 36.3853C33.4696 35.4854 33.3396 34.6462 33.0497 33.8676C32.7477 33.0791 32.2706 32.4193 31.6185 31.888C31.2079 31.5535 30.7989 31.4514 30.3915 31.5816C29.9939 31.6997 29.5201 32.047 28.97 32.6236C28.42 33.2002 27.7318 33.9957 26.9054 35.0101C26.0889 36.0125 25.434 37.026 24.9408 38.0507C24.4356 39.0655 24.2069 40.0244 24.2549 40.9274C24.2908 41.8205 24.7072 42.5917 25.5043 43.241C26.1202 43.7428 26.7553 43.999 27.4096 44.0096C28.0639 44.0203 28.7348 43.8133 29.4221 43.3888C30.1095 42.9643 30.7877 42.3415 31.4566 41.5202Z" fill="#FF7B36"/>
<path d="M51.4368 29.6044C50.2522 30.0388 49.0833 30.3347 47.9299 30.4922C46.7911 30.6443 45.7184 30.6146 44.7118 30.403C43.7051 30.1915 42.8177 29.762 42.0494 29.1146C41.2811 28.4673 40.6798 27.5513 40.2454 26.3667C39.7521 25.0213 39.6762 23.7965 40.018 22.6923C40.3597 21.5882 41.0051 20.5884 41.9542 19.6928C42.9126 18.7773 44.0662 17.9644 45.415 17.2542C46.7639 16.5439 48.1988 15.9099 49.7197 15.3522C50.1877 15.1806 50.6683 15.0209 51.1617 14.8732C51.655 14.7255 52.1191 14.5885 52.5539 14.4623C53.0034 14.3306 53.367 14.2139 53.6449 14.112C54.0251 13.9726 54.2596 13.8202 54.3483 13.655C54.4317 13.4751 54.4171 13.2316 54.3044 12.9245C54.0953 12.3541 53.8372 11.8764 53.5301 11.4913C53.2376 11.1008 52.898 10.7857 52.5115 10.5458C52.1249 10.306 51.7059 10.1361 51.2545 10.0362C50.5247 9.85584 49.7135 9.83806 48.821 9.98285C47.9377 10.1077 47.0207 10.3443 46.0701 10.6929C44.944 11.1058 43.9852 11.5901 43.1935 12.1459C42.4165 12.6963 41.7372 13.2191 41.1556 13.7144C40.5741 14.2097 40.0054 14.5592 39.4497 14.763C38.6892 15.0418 38.0587 15.132 37.558 15.0336C37.0574 14.9351 36.7052 14.608 36.5014 14.0523C36.2923 13.4819 36.3405 12.867 36.6462 12.2074C36.9518 11.5478 37.4617 10.8797 38.1758 10.2031C38.9046 9.5211 39.7945 8.87127 40.8455 8.25362C41.9111 7.6306 43.0874 7.08315 44.3744 6.61125C46.9629 5.66209 49.2479 5.19749 51.2296 5.21745C53.2204 5.21742 54.9227 5.78775 56.3364 6.92844C57.7448 8.0545 58.8994 9.84598 59.8003 12.3029C60.0684 13.0341 60.2651 13.6837 60.3904 14.2516C60.5157 14.8195 60.5949 15.3296 60.6281 15.782C60.6705 16.2144 60.7088 16.5903 60.7429 16.9096C60.777 17.2289 60.8397 17.5128 60.9308 17.7614C61.0595 18.1124 61.2926 18.4086 61.6299 18.6499C61.9765 18.8712 62.3597 19.0791 62.7794 19.2736C63.2137 19.4627 63.6122 19.6899 63.9749 19.9551C64.3323 20.2056 64.5887 20.5429 64.7442 20.9671C64.9748 21.5959 64.9363 22.1243 64.6287 22.5523C64.3211 22.9804 63.9187 23.2855 63.4215 23.4679C62.9681 23.6341 62.5316 23.62 62.1118 23.4255C61.7121 23.2402 61.3343 23.0469 60.9784 22.8456C60.6372 22.6389 60.2911 22.5999 59.9401 22.7286C59.7354 22.8037 59.5301 22.9453 59.3244 23.1535C59.1333 23.3563 58.9079 23.6463 58.648 24.0236C58.3273 24.5063 57.8956 25.071 57.3531 25.7179C56.8305 26.3741 56.0964 27.0414 55.1507 27.72C54.2103 28.4132 52.9724 29.0414 51.4368 29.6044ZM50.7984 26.031C51.7051 25.6985 52.5316 25.2378 53.278 24.6489C54.0189 24.0454 54.6346 23.3717 55.125 22.6278C55.61 21.8693 55.9266 21.0812 56.0748 20.2637C56.2176 19.4316 56.1443 18.6207 55.8547 17.831C55.6724 17.3337 55.3728 17.0371 54.956 16.9411C54.5538 16.8397 53.9691 16.8965 53.2018 17.1115C52.4345 17.3265 51.4367 17.6592 50.2082 18.1096C48.9944 18.5547 47.9139 19.0919 46.9667 19.7213C46.0142 20.336 45.3281 21.0438 44.9084 21.8448C44.4833 22.6311 44.4477 23.5069 44.8016 24.4721C45.0751 25.2179 45.4905 25.7624 46.0477 26.1056C46.6049 26.4488 47.2873 26.6133 48.0951 26.5991C48.9028 26.585 49.8039 26.3956 50.7984 26.031Z" fill="#FF7B36"/>
<path d="M77.2224 25.7851C75.0275 25.3229 73.2249 24.5851 71.8147 23.5718C70.4012 22.5737 69.3416 21.3318 68.6357 19.846C67.9298 18.3602 67.5377 16.6699 67.4592 14.775C67.3839 12.8649 67.5838 10.7819 68.0589 8.52605C68.1745 7.97733 68.3053 7.43183 68.4513 6.88953C68.6158 6.3352 68.7907 5.80694 68.9761 5.30476C69.1614 4.80257 69.3584 4.35855 69.567 3.97269C70.0629 2.97876 70.6181 2.30773 71.2326 1.95961C71.8504 1.59624 72.525 1.4916 73.2567 1.64568C73.9426 1.79013 74.4303 2.04407 74.7199 2.40751C75.0095 2.77094 75.161 3.1849 75.1747 3.64939C75.2067 4.10185 75.1854 4.54308 75.1108 4.97307C75.0466 5.27792 74.9728 5.62849 74.8893 6.02478C74.8058 6.42108 74.7192 6.83262 74.6293 7.2594C74.5394 7.68618 74.4511 8.10534 74.3645 8.51688C74.2962 8.91639 74.2344 9.28541 74.1791 9.62395C73.8444 11.591 73.7179 13.3631 73.7996 14.9403C73.8845 16.5023 74.2884 17.7971 75.0111 18.8248C75.7523 19.8405 76.9079 20.5136 78.4778 20.8443C80.0782 21.1813 81.4352 21.1249 82.5488 20.6749C83.6655 20.2097 84.6146 19.4067 85.396 18.266C86.196 17.1132 86.9117 15.6801 87.5431 13.9666C87.7156 13.5254 87.8745 13.0733 88.0198 12.6104C88.1834 12.1355 88.3319 11.6574 88.4651 11.1761C88.6135 10.698 88.762 10.2198 88.9104 9.74173C89.0773 9.25158 89.2442 8.76143 89.4111 8.27127C89.7875 7.31584 90.2468 6.60871 90.7891 6.14987C91.3315 5.69103 92.0218 5.54989 92.8601 5.72644C93.5917 5.88052 94.0815 6.23835 94.3293 6.79993C94.5956 7.34948 94.7059 8.0731 94.6601 8.9708C94.587 9.54439 94.4988 10.1148 94.3952 10.6819C94.2949 11.2339 94.1777 11.7902 94.0437 12.351C93.925 12.9149 93.7926 13.468 93.6465 14.0103C93.5157 14.5559 93.3697 15.0982 93.2084 15.6372C92.4196 18.4001 91.3107 20.6418 89.8818 22.3625C88.4561 24.068 86.6879 25.2078 84.5772 25.782C82.4786 26.3747 80.0269 26.3758 77.2224 25.7851Z" fill="#FF7B36"/>
<path d="M69.3777 118.445C96.6303 118.445 118.723 96.352 118.723 69.0995C118.723 55.5538 113.265 43.283 104.428 34.3661C103.29 33.2178 103.091 31.4108 104.042 30.1031C105.135 28.5999 107.289 28.3564 108.607 29.6672C118.732 39.7407 125 53.6881 125 69.0995C125 99.8187 100.097 124.722 69.3777 124.722C50.1092 124.722 33.129 114.924 23.1474 100.039C21.9878 98.3093 22.94 96.0116 24.9479 95.4609C26.3185 95.085 27.7638 95.667 28.5637 96.8416C37.4445 109.882 52.4111 118.445 69.3777 118.445Z" fill="#FF7B36"/>
<path fill-rule="evenodd" clip-rule="evenodd" d="M46.629 79.1704C49.6548 79.1375 52.595 80.737 53.5458 83.6367C54.5111 86.5806 53.1669 89.7126 50.6851 91.5402C48.1868 93.3799 44.7998 93.757 42.302 91.9166C39.8196 90.0875 39.1594 86.7169 40.1557 83.7821C41.1022 80.994 43.7092 79.2021 46.629 79.1704Z" fill="#FF7B36"/>
<path fill-rule="evenodd" clip-rule="evenodd" d="M90.8355 40.7374C93.0103 42.8656 93.9668 46.0902 92.5869 48.8222C91.186 51.5959 88.0095 52.8608 84.949 52.392C81.8682 51.9201 79.1926 49.7791 78.7215 46.6982C78.2533 43.6363 80.1738 40.777 82.963 39.4045C85.6128 38.1006 88.737 38.6839 90.8355 40.7374Z" fill="#FF7B36"/>
<path fill-rule="evenodd" clip-rule="evenodd" d="M47.5482 55.7857C51.1682 55.8493 54.2978 58.2209 55.4116 61.6525C56.5204 65.0685 55.3532 68.7913 52.4679 70.9426C49.4473 73.1947 45.3303 73.6318 42.2435 71.4706C39.0103 69.2068 37.5201 65.0909 38.7818 61.3602C40.0055 57.7421 43.716 55.7183 47.5482 55.7857Z" fill="#FF7B36"/>
<path fill-rule="evenodd" clip-rule="evenodd" d="M70.8719 50.7967C69.4296 54.0813 66.0581 56.0323 62.4851 55.7342C58.9283 55.4374 55.9602 52.9425 55.0903 49.4798C54.1796 45.8549 55.3528 41.9239 58.515 39.9313C61.8272 37.8442 66.1718 38.0608 69.1109 40.6451C71.9613 43.1515 72.3988 47.3196 70.8719 50.7967Z" fill="#FF7B36"/>
<path fill-rule="evenodd" clip-rule="evenodd" d="M60.4427 74.8167C62.4189 66.919 68.4332 61.1958 76.3431 59.5888C86.67 57.4908 99.7368 56.316 104.185 65.9299C108.595 75.4589 98.6142 84.0382 91.0017 91.268C83.5407 98.354 74.5916 107.443 65.582 102.593C56.4871 97.6966 57.9125 84.9279 60.4427 74.8167Z" fill="#FF7B36"/>
</svg>
